<?xml version="1.0" standalone="no"?>
<!DOCTYPE svg PUBLIC "-//W3C//DTD SVG 20010904//EN"
 "http://www.w3.org/TR/2001/REC-SVG-20010904/DTD/svg10.dtd">
<svg version="1.0" xmlns="http://www.w3.org/2000/svg"
 width="300.000000pt" height="168.000000pt" viewBox="0 0 300.000000 168.000000"
 preserveAspectRatio="xMidYMid meet">

<g transform="translate(0.000000,168.000000) scale(0.100000,-0.100000)"
fill="#000000" stroke="none">
<path d="M993 1603 c-10 -3 -13 -72 -13 -294 l0 -289 455 0 455 0 0 295 0 295
-442 -1 c-244 0 -449 -3 -455 -6z m435 -59 l27 -14 -24 0 c-19 0 -22 -3 -13
-12 8 -8 9 -15 1 -25 -8 -9 -7 -14 5 -19 34 -13 14 -20 -29 -10 -53 14 -68 26
-32 26 14 0 28 4 31 9 3 4 -6 6 -21 3 -20 -4 -24 -2 -18 8 6 10 4 12 -9 7 -10
-4 -19 -7 -21 -7 -2 0 1 -14 7 -31 14 -41 3 -48 -17 -10 -18 35 -23 37 -51 16
-18 -14 -18 -14 2 -9 26 7 42 -13 19 -22 -10 -4 -13 -13 -10 -24 5 -15 2 -17
-15 -13 -11 3 -20 0 -20 -6 0 -6 -7 -11 -15 -11 -9 0 -12 6 -9 18 5 14 4 15
-5 2 -6 -8 -16 -16 -23 -16 -7 -1 -17 -2 -22 -3 -6 0 3 -14 19 -31 16 -16 24
-30 17 -30 -6 0 -14 5 -17 10 -7 12 -26 14 -23 3 1 -5 -3 -23 -10 -42 -10 -28
-14 -32 -27 -21 -13 10 -15 9 -15 -8 0 -14 9 -21 30 -25 17 -4 30 -11 30 -16
0 -6 -13 -8 -31 -4 -24 5 -34 2 -42 -12 -9 -17 -11 -16 -23 6 -7 13 -13 32
-14 41 0 27 30 83 53 98 17 10 16 7 -6 -19 -17 -21 -27 -44 -27 -64 l0 -32 19
40 c26 55 34 79 32 88 -2 11 51 53 62 49 5 -1 6 2 2 7 -7 12 71 71 92 71 8 0
11 5 7 12 -5 8 -2 9 10 5 13 -5 16 -3 12 11 -5 14 1 17 39 19 25 1 58 -5 73
-13z m177 -42 c82 -37 138 -101 175 -202 13 -35 16 -58 10 -73 -5 -12 -9 -16
-9 -8 -1 10 -11 12 -41 7 -32 -5 -38 -3 -34 8 3 8 18 16 32 18 16 2 28 10 30
21 3 15 0 16 -23 7 -33 -12 -45 -13 -45 -1 0 5 9 13 20 16 26 8 25 18 -2 30
-32 14 -35 43 -7 54 l23 8 -23 12 c-30 16 -58 7 -41 -14 16 -19 3 -40 -16 -24
-19 16 -18 35 6 59 11 11 15 22 9 25 -5 4 -19 -5 -31 -20 -26 -33 -37 -25 -13
11 11 17 13 30 7 36 -6 6 -17 -3 -30 -24 -13 -19 -22 -26 -22 -17 0 8 -14 22
-31 30 -19 8 -37 27 -45 48 l-14 33 28 -7 c15 -3 54 -18 87 -33z m-145 -117
c0 -14 9 -44 21 -67 29 -58 28 -97 -4 -140 -15 -19 -27 -42 -27 -51 0 -25 -15
-21 -43 12 -22 27 -25 39 -25 121 0 87 2 92 30 120 36 37 48 38 48 5z m-123
-57 c13 -12 23 -28 23 -37 0 -10 -9 -6 -30 14 -29 28 -38 45 -23 45 4 0 17
-10 30 -22z m233 14 c0 -14 -56 -63 -63 -55 -4 3 5 19 20 35 27 28 43 35 43
20z m-240 -131 c0 -4 -18 -8 -40 -7 -22 0 -40 4 -40 8 0 5 18 8 40 8 22 0 40
-4 40 -9z m290 -1 c0 -5 -18 -9 -40 -8 -22 1 -40 5 -40 10 0 4 18 8 40 8 22 0
40 -4 40 -10z m-284 -108 c-36 -36 -46 -19 -10 19 16 17 30 25 33 18 2 -6 -8
-23 -23 -37z m231 -18 c-10 -10 -57 36 -57 55 0 11 10 6 32 -16 18 -18 29 -36
25 -39z m-117 -24 c0 -16 -4 -30 -10 -30 -5 0 -10 14 -10 30 0 17 5 30 10 30
6 0 10 -13 10 -30z"/>
<path d="M1227 1449 c7 -7 15 -10 18 -7 3 3 -2 9 -12 12 -14 6 -15 5 -6 -5z"/>
<path d="M1520 1511 c0 -5 7 -17 16 -25 17 -18 34 -21 34 -7 0 5 -9 11 -21 14
-12 3 -18 10 -14 16 3 6 1 11 -4 11 -6 0 -11 -4 -11 -9z"/>
<path d="M1586 1485 c4 -8 8 -15 10 -15 2 0 4 7 4 15 0 8 -4 15 -10 15 -5 0
-7 -7 -4 -15z"/>
<path d="M1418 1373 c-24 -28 -31 -180 -10 -215 21 -35 27 -35 42 2 7 16 18
35 26 41 21 17 17 61 -10 120 -14 29 -23 56 -20 61 10 15 -13 8 -28 -9z"/>
<path d="M980 735 c0 -364 -10 -348 225 -355 130 -4 167 -9 188 -23 14 -9 28
-17 31 -17 3 0 5 149 6 330 l0 330 -225 0 -225 0 0 -265z m266 96 l23 44 1
-60 1 -60 25 30 c28 33 28 35 -1 -68 -11 -42 -27 -68 -55 -96 -45 -44 -50 -60
-17 -59 46 3 100 -2 94 -9 -8 -7 -215 -12 -234 -5 -29 10 -10 17 42 17 35 -1
55 3 55 10 0 7 -17 30 -38 52 -27 28 -44 59 -55 100 -21 75 -21 84 3 54 l20
-23 0 38 c0 60 13 70 34 27 11 -21 20 -33 22 -28 2 6 8 30 15 55 l12 45 15
-54 15 -53 23 43z m69 -311 c-7 -11 -245 -12 -245 -2 0 5 56 9 125 9 68 0 122
-3 120 -7z"/>
<path d="M1450 670 c0 -181 3 -330 7 -330 3 0 15 8 26 17 16 15 46 19 184 23
l165 5 29 33 29 32 0 275 0 275 -220 0 -220 0 0 -330z m273 138 c33 -17 138
-110 135 -119 -2 -5 -32 -33 -68 -63 -104 -88 -151 -85 -263 17 l-58 52 56 45
c31 25 69 53 83 62 31 21 83 23 115 6z"/>
<path d="M1622 764 c-52 -36 -48 -120 8 -149 39 -20 52 -19 84 6 39 31 49 63
32 104 -23 54 -78 71 -124 39z m89 -80 c-2 -26 -6 -42 -10 -36 -3 6 -19 12
-35 14 -23 2 -33 11 -43 36 l-13 32 53 0 52 0 -4 -46z"/>
<path d="M1632 703 c2 -11 14 -19 28 -20 l25 -3 -23 10 c-13 5 -20 14 -17 20
3 5 1 10 -5 10 -6 0 -10 -8 -8 -17z"/>
<path d="M1670 716 c0 -2 7 -9 15 -16 12 -10 15 -10 15 4 0 9 -7 16 -15 16 -8
0 -15 -2 -15 -4z"/>
<path d="M840 372 c0 -6 16 -27 35 -48 28 -29 33 -39 22 -45 -30 -18 -62 -48
-55 -54 3 -4 21 -10 40 -14 18 -5 43 -11 56 -15 21 -7 22 -5 22 48 0 31 5 56
10 56 6 0 10 8 10 18 0 11 -14 24 -38 35 -52 23 -102 32 -102 19z"/>
<path d="M1995 373 c-60 -13 -105 -37 -105 -54 0 -11 5 -19 10 -19 6 0 10 -25
10 -55 0 -30 3 -55 8 -55 4 0 32 8 63 18 l55 17 -20 21 c-12 12 -31 25 -44 29
-23 7 -22 8 17 44 23 21 41 43 41 49 0 12 -2 13 -35 5z"/>
<path d="M975 272 c-3 -3 -5 -36 -5 -73 0 -74 -1 -73 76 -84 27 -4 53 -10 57
-12 4 -3 36 -6 70 -9 34 -2 73 -6 87 -9 14 -3 89 -5 168 -5 138 0 218 6 387
33 l80 13 1 77 c2 74 1 77 -20 72 -11 -2 -53 -11 -92 -19 -39 -9 -109 -19
-155 -22 -46 -4 -91 -8 -99 -10 -8 -1 -17 -3 -20 -3 -3 -1 2 -6 10 -12 12 -8
10 -9 -7 -4 -12 3 -24 1 -28 -5 -4 -6 7 -10 29 -10 l36 0 0 -46 0 -45 -31 22
c-30 21 -31 23 -13 36 17 12 17 13 -3 13 -18 0 -23 -7 -26 -37 l-4 -38 -1 38
c-3 50 -22 48 -22 -3 0 -38 -1 -39 -20 -28 -11 7 -18 19 -15 25 2 8 -4 13 -17
13 -21 0 -21 0 -3 20 10 12 24 19 29 17 6 -2 22 6 36 19 27 26 30 25 -63 28
-43 1 -56 -2 -52 -12 3 -9 -1 -11 -14 -7 -11 3 -22 1 -26 -5 -4 -6 10 -10 39
-10 25 0 48 -4 51 -10 3 -6 -1 -10 -9 -10 -12 0 -16 -10 -16 -37 l0 -36 -25
23 c-29 27 -32 40 -8 40 21 0 14 7 -12 12 -14 2 -20 -3 -21 -19 -3 -46 -7 -47
-14 -3 -6 33 -4 49 7 61 13 15 7 17 -68 24 -45 4 -119 15 -165 25 -46 9 -86
15 -89 12z m193 -70 c33 -5 52 -5 52 1 0 6 3 7 6 4 11 -11 14 -97 4 -97 -6 0
-10 15 -10 34 0 22 -6 36 -16 40 -14 5 -15 4 -4 -9 14 -17 6 -50 -10 -40 -5 3
-10 1 -10 -6 0 -7 -11 -2 -26 12 -22 21 -23 25 -9 35 14 10 13 12 -5 17 -18 4
-20 0 -20 -35 0 -23 -4 -37 -10 -33 -5 3 -10 22 -10 41 0 27 -4 34 -19 34 -25
0 -33 -12 -19 -30 8 -12 9 -12 4 3 -3 11 0 17 9 17 19 0 19 -24 0 -40 -16 -13
-38 -4 -32 13 2 7 0 22 -4 35 -10 26 -14 26 129 4z m664 -22 c-2 -22 -7 -38
-11 -35 -4 2 -6 18 -3 35 2 16 0 30 -5 30 -6 0 -9 -11 -8 -25 2 -16 -2 -25
-11 -25 -17 0 -18 12 -2 28 9 9 8 12 -5 12 -18 0 -20 -6 -19 -54 1 -33 -14
-23 -21 14 l-4 25 -8 -23 c-9 -28 -30 -23 -29 7 0 11 -3 21 -8 21 -4 0 -8 -18
-8 -41 0 -24 -4 -38 -10 -34 -5 3 -10 19 -10 36 0 16 -4 29 -10 29 -5 0 -10
-15 -10 -34 0 -19 -4 -37 -9 -40 -5 -4 -7 12 -4 35 l6 40 -33 -3 c-19 -2 -35
-10 -38 -18 -4 -12 -2 -13 9 -2 23 21 36 13 35 -22 -1 -36 -16 -40 -16 -3 0
16 -3 18 -12 9 -19 -19 -28 -14 -28 18 0 29 2 30 45 30 25 0 46 1 48 2 3 2
149 26 167 27 12 1 15 -8 12 -39z m-22 -40 c0 -5 -4 -10 -10 -10 -5 0 -10 5
-10 10 0 6 5 10 10 10 6 0 10 -4 10 -10z"/>
<path d="M1155 160 c3 -5 8 -10 11 -10 2 0 4 5 4 10 0 6 -5 10 -11 10 -5 0 -7
-4 -4 -10z"/>
<path d="M1345 140 c3 -5 8 -10 11 -10 2 0 4 5 4 10 0 6 -5 10 -11 10 -5 0 -7
-4 -4 -10z"/>
</g>
</svg>
